<svg width="16" height="16" viewBox="0 0 16 16" fill="none" xmlns="http://www.w3.org/2000/svg">
<path d="M15.2357 10.0174L13.5628 10.8077C13.3313 10.9169 13.1935 11.1615 13.2175 11.4202L13.3951 13.2799C13.4331 13.6861 13.0757 14.0156 12.6805 13.9388L10.8678 13.5831C10.6163 13.5345 10.3628 13.6498 10.233 13.8741L9.29874 15.4852C9.09511 15.8369 8.61201 15.8915 8.33852 15.5923L7.08085 14.2259C6.90717 14.0358 6.63367 13.9792 6.39811 14.0823L4.70724 14.8302C4.33793 14.994 3.91671 14.7514 3.8668 14.3451L3.64321 12.4915C3.61127 12.2348 3.42362 12.0246 3.17408 11.97L1.37142 11.5678C0.978152 11.4808 0.778522 11.0321 0.974159 10.6763L1.8685 9.04105C1.99227 8.81466 1.96233 8.53369 1.79264 8.33964L0.56891 6.94085C0.301406 6.63563 0.399224 6.15454 0.764547 5.98272L2.43745 5.19237C2.66902 5.08322 2.80676 4.83863 2.78281 4.5799L2.60514 2.72024C2.56721 2.31395 2.92455 1.98446 3.31981 2.06128L5.13246 2.41704C5.38399 2.46555 5.63752 2.35033 5.76728 2.12596L6.70155 0.514931C6.90517 0.163213 7.38828 0.108636 7.66177 0.407798L8.91944 1.77424C9.09312 1.96425 9.36661 2.02085 9.60217 1.91776L11.293 1.16985C11.6624 1.00612 12.0836 1.24869 12.1335 1.65498L12.3571 3.50857C12.389 3.76529 12.5767 3.97551 12.8262 4.03009L14.6289 4.43234C15.0221 4.51926 15.2218 4.968 15.0261 5.32376L14.1318 6.95904C14.008 7.18544 14.038 7.46641 14.2076 7.66046L15.4314 9.05924C15.6989 9.36447 15.6011 9.84555 15.2357 10.0174Z" fill="#FEB087"/>
</svg>
